<?xml version="1.0" encoding="UTF-8" standalone="no"?>
<!DOCTYPE svg PUBLIC "-//W3C//DTD SVG 1.1//EN"
 "http://www.w3.org/Graphics/SVG/1.1/DTD/svg11.dtd">
<!-- Generated by graphviz version 2.32.0 (20130802.0446)
 -->
<!-- Title: %3 Pages: 1 -->
<svg width="458pt" height="260pt"
 viewBox="0.00 0.00 458.00 260.00" xmlns="http://www.w3.org/2000/svg" xmlns:xlink="http://www.w3.org/1999/xlink">
<g id="graph0" class="graph" transform="scale(1 1) rotate(0) translate(4 256)">
<title>%3</title>
<polygon fill="white" stroke="white" points="-4,5 -4,-256 455,-256 455,5 -4,5"/>
<!-- object -->
<g id="node1" class="node"><title>object</title>
<polygon fill="none" stroke="black" points="222,-180 168,-180 168,-144 222,-144 222,-180"/>
<text text-anchor="middle" x="195" y="-158.3" font-family="Times New Roman,serif" font-size="14.00">object</text>
</g>
<!-- the -->
<g id="node2" class="node"><title>the</title>
<polygon fill="none" stroke="black" points="222,-252 168,-252 168,-216 222,-216 222,-252"/>
<text text-anchor="middle" x="195" y="-230.3" font-family="Times New Roman,serif" font-size="14.00">the</text>
</g>
<!-- object&#45;&gt;the -->
<g id="edge1" class="edge"><title>object&#45;&gt;the</title>
<path fill="none" stroke="black" d="M195,-180.303C195,-188.017 195,-197.288 195,-205.888"/>
<polygon fill="black" stroke="black" points="191.5,-205.896 195,-215.896 198.5,-205.896 191.5,-205.896"/>
</g>
<!-- expression -->
<g id="node3" class="node"><title>expression</title>
<polygon fill="none" stroke="black" points="333.5,-108 256.5,-108 256.5,-72 333.5,-72 333.5,-108"/>
<text text-anchor="middle" x="295" y="-86.3" font-family="Times New Roman,serif" font-size="14.00">expression</text>
</g>
<!-- expression&#45;&gt;object -->
<g id="edge2" class="edge"><title>expression&#45;&gt;object</title>
<path fill="none" stroke="black" d="M270.537,-108.124C257.704,-117.107 241.804,-128.237 227.906,-137.966"/>
<polygon fill="black" stroke="black" points="225.742,-135.208 219.557,-143.81 229.756,-140.943 225.742,-135.208"/>
</g>
<!-- collection -->
<g id="node4" class="node"><title>collection</title>
<polygon fill="none" stroke="black" points="422.5,-108 351.5,-108 351.5,-72 422.5,-72 422.5,-108"/>
<text text-anchor="middle" x="387" y="-86.3" font-family="Times New Roman,serif" font-size="14.00">collection</text>
</g>
<!-- expression&#45;&gt;collection -->
<g id="edge13" class="edge"><title>expression&#45;&gt;collection</title>
<path fill="none" stroke="black" d="M343.572,-90C346.195,-90 348.818,-90 351.442,-90"/>
<polygon fill="none" stroke="black" points="333.453,-94 333.453,-86 341.453,-86.0001 341.453,-94.0001 333.453,-94"/>
<polyline fill="none" stroke="black" points="341.453,-90.0001 343.453,-90.0001 "/>
</g>
<!-- collection&#45;&gt;object -->
<g id="edge3" class="edge"><title>collection&#45;&gt;object</title>
<path fill="none" stroke="black" d="M351.646,-104.414C348.387,-105.633 345.134,-106.843 342,-108 304.501,-121.842 261.471,-137.308 231.699,-147.942"/>
<polygon fill="black" stroke="black" points="230.38,-144.697 222.138,-151.354 232.733,-151.29 230.38,-144.697"/>
</g>
<!-- interpolation -->
<g id="node5" class="node"><title>interpolation</title>
<polygon fill="none" stroke="black" points="238,-108 152,-108 152,-72 238,-72 238,-108"/>
<text text-anchor="middle" x="195" y="-86.3" font-family="Times New Roman,serif" font-size="14.00">interpolation</text>
</g>
<!-- interpolation&#45;&gt;object -->
<g id="edge4" class="edge"><title>interpolation&#45;&gt;object</title>
<path fill="none" stroke="black" d="M195,-108.303C195,-116.017 195,-125.288 195,-133.888"/>
<polygon fill="black" stroke="black" points="191.5,-133.896 195,-143.896 198.5,-133.896 191.5,-133.896"/>
</g>
<!-- jsonify -->
<g id="node6" class="node"><title>jsonify</title>
<polygon fill="none" stroke="black" points="134,-108 80,-108 80,-72 134,-72 134,-108"/>
<text text-anchor="middle" x="107" y="-86.3" font-family="Times New Roman,serif" font-size="14.00">jsonify</text>
</g>
<!-- jsonify&#45;&gt;object -->
<g id="edge5" class="edge"><title>jsonify&#45;&gt;object</title>
<path fill="none" stroke="black" d="M128.753,-108.303C139.836,-117.119 153.474,-127.968 165.49,-137.526"/>
<polygon fill="black" stroke="black" points="163.493,-140.41 173.497,-143.896 167.85,-134.931 163.493,-140.41"/>
</g>
<!-- jsonify&#45;&gt;expression -->
<g id="edge15" class="edge"><title>jsonify&#45;&gt;expression</title>
<path fill="none" stroke="black" d="M124.081,-71.7827C131.846,-64.8019 141.615,-57.6429 152,-54 188.068,-41.3482 201.284,-43.3762 238,-54 247.165,-56.6519 256.272,-61.265 264.43,-66.3215"/>
<polygon fill="none" stroke="black" points="275.076,-68.5759 270.658,-75.2452 263.988,-70.827 268.407,-64.1577 275.076,-68.5759"/>
<polyline fill="none" stroke="black" points="266.198,-67.4924 264.53,-66.3878 "/>
</g>
<!-- jsonify&#45;&gt;interpolation -->
<g id="edge14" class="edge"><title>jsonify&#45;&gt;interpolation</title>
<path fill="none" stroke="black" d="M134.156,-90C136.63,-90 139.103,-90 141.576,-90"/>
<polygon fill="none" stroke="black" points="151.744,-86 151.744,-94 143.744,-94.0001 143.744,-86.0001 151.744,-86"/>
<polyline fill="none" stroke="black" points="143.744,-90.0001 141.744,-90.0001 "/>
</g>
<!-- linked -->
<g id="node7" class="node"><title>linked</title>
<polygon fill="none" stroke="black" points="378,-36 324,-36 324,-0 378,-0 378,-36"/>
<text text-anchor="middle" x="351" y="-14.3" font-family="Times New Roman,serif" font-size="14.00">linked</text>
</g>
<!-- linked&#45;&gt;collection -->
<g id="edge6" class="edge"><title>linked&#45;&gt;collection</title>
<path fill="none" stroke="black" d="M359.899,-36.3034C363.997,-44.2716 368.949,-53.9005 373.493,-62.7359"/>
<polygon fill="black" stroke="black" points="370.517,-64.6035 378.203,-71.8957 376.742,-61.402 370.517,-64.6035"/>
</g>
<!-- layered -->
<g id="node8" class="node"><title>layered</title>
<polygon fill="none" stroke="black" points="264,-36 208,-36 208,-0 264,-0 264,-36"/>
<text text-anchor="middle" x="236" y="-14.3" font-family="Times New Roman,serif" font-size="14.00">layered</text>
</g>
<!-- layered&#45;&gt;collection -->
<g id="edge7" class="edge"><title>layered&#45;&gt;collection</title>
<path fill="none" stroke="black" d="M264.048,-32.0024C286.077,-42.2143 317.169,-56.6278 342.574,-68.4052"/>
<polygon fill="black" stroke="black" points="341.105,-71.5818 351.649,-72.6123 344.049,-65.231 341.105,-71.5818"/>
</g>
<!-- layered&#45;&gt;interpolation -->
<g id="edge16" class="edge"><title>layered&#45;&gt;interpolation</title>
<path fill="none" stroke="black" d="M220.652,-45.2033C215.424,-54.129 209.719,-63.8709 205.018,-71.8957"/>
<polygon fill="none" stroke="black" points="222.414,-34.2817 229.317,-38.325 225.273,-45.2281 218.37,-41.1848 222.414,-34.2817"/>
<polyline fill="none" stroke="black" points="221.822,-43.2065 220.811,-44.9322 "/>
</g>
<!-- linq -->
<g id="node9" class="node"><title>linq</title>
<polygon fill="none" stroke="black" points="450,-36 396,-36 396,-0 450,-0 450,-36"/>
<text text-anchor="middle" x="423" y="-14.3" font-family="Times New Roman,serif" font-size="14.00">linq</text>
</g>
<!-- linq&#45;&gt;collection -->
<g id="edge8" class="edge"><title>linq&#45;&gt;collection</title>
<path fill="none" stroke="black" d="M414.101,-36.3034C410.003,-44.2716 405.051,-53.9005 400.507,-62.7359"/>
<polygon fill="black" stroke="black" points="397.258,-61.402 395.797,-71.8957 403.483,-64.6035 397.258,-61.402"/>
</g>
<!-- http -->
<g id="node10" class="node"><title>http</title>
<polygon fill="none" stroke="black" points="62,-108 8,-108 8,-72 62,-72 62,-108"/>
<text text-anchor="middle" x="35" y="-86.3" font-family="Times New Roman,serif" font-size="14.00">http</text>
</g>
<!-- http&#45;&gt;object -->
<g id="edge9" class="edge"><title>http&#45;&gt;object</title>
<path fill="none" stroke="black" d="M62.0767,-103.918C65.0802,-105.312 68.1002,-106.696 71,-108 100.218,-121.137 133.629,-135.373 158.402,-145.779"/>
<polygon fill="black" stroke="black" points="157.205,-149.073 167.781,-149.709 159.911,-142.617 157.205,-149.073"/>
</g>
<!-- action -->
<g id="node11" class="node"><title>action</title>
<polygon fill="none" stroke="black" points="137,-36 83,-36 83,-0 137,-0 137,-36"/>
<text text-anchor="middle" x="110" y="-14.3" font-family="Times New Roman,serif" font-size="14.00">action</text>
</g>
<!-- action&#45;&gt;interpolation -->
<g id="edge11" class="edge"><title>action&#45;&gt;interpolation</title>
<path fill="none" stroke="black" d="M131.011,-36.3034C141.716,-45.1193 154.89,-55.9679 166.496,-65.5258"/>
<polygon fill="none" stroke="black" points="176.773,-68.8079 171.688,-74.9834 165.512,-69.8977 170.598,-63.7222 176.773,-68.8079"/>
<polyline fill="none" stroke="black" points="168.055,-66.81 166.511,-65.5386 "/>
</g>
<!-- action&#45;&gt;jsonify -->
<g id="edge12" class="edge"><title>action&#45;&gt;jsonify</title>
<path fill="none" stroke="black" d="M109.258,-36.3034C108.928,-44.0173 108.531,-53.2875 108.162,-61.8876"/>
<polygon fill="black" stroke="black" points="104.665,-61.7549 107.733,-71.8957 111.658,-62.0547 104.665,-61.7549"/>
</g>
<!-- action&#45;&gt;http -->
<g id="edge10" class="edge"><title>action&#45;&gt;http</title>
<path fill="none" stroke="black" d="M91.4607,-36.3034C82.1967,-44.9497 70.8377,-55.5514 60.7433,-64.973"/>
<polygon fill="black" stroke="black" points="58.2485,-62.5137 53.3261,-71.8957 63.0248,-67.6312 58.2485,-62.5137"/>
</g>
<!-- http_test -->
<g id="node12" class="node"><title>http_test</title>
<polygon fill="none" stroke="black" points="64.5,-36 -0.5,-36 -0.5,-0 64.5,-0 64.5,-36"/>
<text text-anchor="middle" x="32" y="-14.3" font-family="Times New Roman,serif" font-size="14.00">http_test</text>
</g>
<!-- http_test&#45;&gt;http -->
<g id="edge17" class="edge"><title>http_test&#45;&gt;http</title>
<path fill="none" stroke="black" d="M32.7416,-36.3034C33.0722,-44.0173 33.4695,-53.2875 33.838,-61.8876"/>
<polygon fill="black" stroke="black" points="30.3419,-62.0547 34.267,-71.8957 37.3355,-61.7549 30.3419,-62.0547"/>
</g>
</g>
</svg>
